# xmcd CD database file
#
# Track frame offsets:
#	150
#	27225
#	41512
#	58650
#	74512
#	93570
#	109465
#	127497
#	148315
#	165872
#	178365
#
# Disc length: 2768 seconds
#
# Revision: 0
# Processed by: cddbd v1.5.1PL0 Copyright (c) Steve Scherf et al.
# Submitted via: CDex 1.51
#
DISCID=ad0ace0b
DTITLE=Marian Mcpartland - Ambiance
DYEAR=1995
DGENRE=Jazz
TTITLE0=What Is This Thing Called Love?
TTITLE1=Aspen
TTITLE2=Sounds Like Seven
TTITLE3=Ambiance
TTITLE4=Rime
TTITLE5=Three Little Words
TTITLE6=Hide And Seek With The Bombay Bicycle Club
TTITLE7=Afterglow
TTITLE8=Lost One
TTITLE9=The Wisdom Of The Heart
TTITLE10=Glimpse
EXTD=YEAR: 1995
EXTT0=
EXTT1=
EXTT2=
EXTT3=
EXTT4=
EXTT5=
EXTT6=
EXTT7=
EXTT8=
EXTT9=
EXTT10=
PLAYORDER=
